<svg width="933" height="859" viewBox="0 0 933 859" fill="none" xmlns="http://www.w3.org/2000/svg">
<path d="M560.371 11.7382C564.775 13.3636 553.829 53.2986 538.818 93.9713C523.807 134.644 510.415 160.652 506.011 159.027C501.607 157.402 483.573 121.91 498.584 81.2376C513.595 40.565 555.967 10.1128 560.371 11.7382Z" fill="url(#paint0_radial)"/>
<path d="M394.048 747.041C397.931 748.411 431.864 716.974 446.291 676.091C460.718 635.207 450.175 600.358 446.291 598.988C442.407 597.617 409.242 614.601 394.815 655.484C380.388 696.368 390.164 745.67 394.048 747.041Z" fill="url(#paint1_radial)"/>
<path d="M534.459 846.339C543.4 844.323 559.888 801.433 550.349 759.141C498.292 721.641 499.915 679.641 499.915 693.186C490.975 695.203 500.31 733.849 509.849 776.141C519.388 818.433 525.518 848.356 534.459 846.339Z" fill="url(#paint2_radial)"/>
<path d="M67.4448 218.533C62.9004 226.492 68.288 268.817 105.938 290.314C168.74 277.196 192.996 329.896 203.787 296.378C208.331 288.419 173.509 269.232 135.859 247.736C98.2095 226.239 71.9892 210.573 67.4448 218.533Z" fill="url(#paint3_radial)"/>
<path d="M61.8774 734.272C64.4914 738.349 101.203 719.173 137.7 695.773C174.197 672.374 196.66 653.612 194.046 649.535C191.432 645.457 152.396 634.691 115.898 658.091C79.4008 681.49 59.2634 730.195 61.8774 734.272Z" fill="url(#paint4_radial)"/>
<path d="M866.615 687.99C869.566 684.055 824.161 645.341 774.095 607.79C724.03 570.24 688.261 548.073 685.31 552.007C682.36 555.942 695.239 603.851 745.305 641.401C795.371 678.952 863.664 691.924 866.615 687.99Z" fill="url(#paint5_radial)"/>
<path d="M141.326 82.4724C137.624 85.7101 190.937 174.16 232.137 221.268C273.338 268.376 286.823 256.303 290.525 253.066C294.227 249.828 291.552 200.29 250.352 153.182C209.151 106.074 145.028 79.2346 141.326 82.4724Z" fill="url(#paint6_radial)"/>
<path d="M72.1003 432.544C70.9056 437.314 127.769 455.397 188.477 470.6C249.185 485.802 290.75 492.368 291.945 487.597C293.14 482.827 262.693 443.658 201.984 428.456C141.276 413.253 73.295 427.773 72.1003 432.544Z" fill="url(#paint7_radial)"/>
<ellipse cx="749.142" cy="248.652" rx="78.5" ry="10.4931" transform="rotate(-20.6982 749.142 248.652)" fill="url(#paint8_radial)"/>
<path d="M741.617 163.362C814.178 130.575 888.913 101.202 959.878 65.719" stroke="black" stroke-linecap="round"/>
<path d="M664 370.895C726.039 358.961 788.4 348.427 850.401 336.501" stroke="black" stroke-linecap="round"/>
<path d="M636 525.091C717.38 572.709 797.087 620.729 870.934 679.533C886.013 691.54 901.373 703.527 916.006 716.069" stroke="black" stroke-linecap="round"/>
<path d="M445.704 572.365C432.805 638.611 392.697 837.07 405.596 770.824" stroke="black" stroke-linecap="round"/>
<path d="M138 447.262C170.556 446.312 203.471 449.403 235.643 454.282C244.365 455.605 253.118 457.395 261.49 460.185" stroke="black" stroke-linecap="round"/>
<path d="M148 114.091C153.337 119.243 246.613 198.428 247 198.089" stroke="black" stroke-linecap="round"/>
<path d="M475.97 85.822C475.97 104.564 474.534 125.369 474.534 143.259" stroke="black" stroke-linecap="round"/>
<path d="M530.581 858.224C526.249 810.212 520.129 762.417 513.134 714.722C512.135 707.91 508.736 687.687 508.598 694.571C508.427 703.136 508.284 711.846 508.86 720.392C509.599 731.354 510.711 742.857 513.309 753.542C515.964 764.462 518.785 760.616 521.945 752.844C522.324 751.911 529.356 727.628 533.024 733.826C539.424 744.64 545.378 755.812 551.867 766.627C567.011 791.868 581.748 815.75 590.25 844.092" stroke="black" stroke-linecap="round"/>
<path d="M68.52 229.091C92.9966 232.499 117.428 242.275 140.227 251.597C153.964 257.214 170.553 262.926 182.187 272.621C185.717 275.563 177.032 274.623 176.692 274.627C166.925 274.761 157.148 274.627 147.381 274.627C142.148 274.627 136.817 274.354 131.591 274.715C126.986 275.032 140.27 277.93 144.763 278.989C162.095 283.075 184.46 286.351 198.326 298.617C199.171 299.365 206.151 303.406 205.654 304.462C204.769 306.341 199.636 305.93 199.024 305.945C164.063 306.758 128.75 303.246 94.0799 299.315C67.1831 296.265 40.535 292.168 13.9108 287.364C9.55426 286.577 5.40952 285.619 1 285.619" stroke="black" stroke-linecap="round"/>
<path d="M491 28.6608C491 66.6372 491 104.614 491 142.59C491 151.283 494.211 132.357 494.838 130.115C495.196 128.838 496.684 114.162 497.194 121.043C497.723 128.193 499.589 135.058 500.421 141.718C501.906 153.593 503.46 117.919 503.562 105.951C503.796 78.5729 513.286 53.5362 517.694 27.0906" stroke="black" stroke-linecap="round"/>
<path d="M26 741.998C46.5057 714.816 79.1563 694.686 107.337 676.318C124.325 665.246 143.108 654.85 163.257 651.307C179.158 648.511 151.83 673.653 149.023 676.42C144.55 680.829 129.441 691.42 135.399 689.434C140.086 687.871 145.531 683.151 149.633 680.69C163.21 672.544 177.64 663.324 192.335 657.407C213.176 649.017 186.825 674.24 182.981 678.352C114.366 751.74 100.304 760.307 34.9177 836.591" stroke="black" stroke-linecap="round"/>
<path d="M885.707 143.091C874.473 147.82 862.939 149.394 851.418 153.282C816.351 165.117 782.802 181.428 748.724 195.776C744.644 197.494 762.256 195.481 763.925 195.258C773.014 194.041 784.934 190.949 793.982 193.703C798.158 194.974 787.44 202.73 786.382 203.549C771.848 214.795 756.658 223.577 743.801 237.061C738.788 242.319 734.781 248.443 729.896 253.816C729.291 254.482 727.437 255.366 728.168 255.889C728.547 256.16 729.066 255.612 729.464 255.371C732.668 253.429 738.907 248.818 741.297 247.08C771.155 225.364 806.637 213.94 841.313 202.167C860.227 195.746 879.518 191.736 899.439 190.076C902.132 189.851 909.053 188.229 910.581 191.285" stroke="black" stroke-linecap="round"/>
<defs>
<radialGradient id="paint0_radial" cx="0" cy="0" r="1" gradientUnits="userSpaceOnUse" gradientTransform="translate(470.678 111.527) rotate(-44.5879) scale(103.781 958.448)">
<stop stop-color="#C0F550"/>
<stop offset="1" stop-color="#C0F550" stop-opacity="0"/>
</radialGradient>
<radialGradient id="paint1_radial" cx="0" cy="0" r="1" gradientUnits="userSpaceOnUse" gradientTransform="translate(394.503 614.995) rotate(87.0456) scale(101.599 858.926)">
<stop stop-color="#C0F550"/>
<stop offset="1" stop-color="#C0F550" stop-opacity="0"/>
</radialGradient>
<radialGradient id="paint2_radial" cx="0" cy="0" r="1" gradientUnits="userSpaceOnUse" gradientTransform="translate(412.577 729.026) rotate(34.7746) scale(127.444 1523.8)">
<stop stop-color="#C0F550"/>
<stop offset="1" stop-color="#C0F550" stop-opacity="0"/>
</radialGradient>
<radialGradient id="paint3_radial" cx="0" cy="0" r="1" gradientUnits="userSpaceOnUse" gradientTransform="translate(230.352 251.951) rotate(167.209) scale(127.444 1523.8)">
<stop stop-color="#C0F550"/>
<stop offset="1" stop-color="#C0F550" stop-opacity="0"/>
</radialGradient>
<radialGradient id="paint4_radial" cx="0" cy="0" r="1" gradientUnits="userSpaceOnUse" gradientTransform="translate(139.216 623.91) rotate(121.486) scale(104.383 983.115)">
<stop stop-color="#C0F550"/>
<stop offset="1" stop-color="#C0F550" stop-opacity="0"/>
</radialGradient>
<radialGradient id="paint5_radial" cx="0" cy="0" r="1" gradientUnits="userSpaceOnUse" gradientTransform="translate(691.468 621.572) rotate(18.0512) scale(143.262 1050.01)">
<stop stop-color="#C0F550"/>
<stop offset="1" stop-color="#C0F550" stop-opacity="0"/>
</radialGradient>
<radialGradient id="paint6_radial" cx="0" cy="0" r="1" gradientUnits="userSpaceOnUse" gradientTransform="translate(317.137 177.768) rotate(-155.221) scale(156.712 1148.59)">
<stop stop-color="#F2F550"/>
<stop offset="1" stop-color="#C0F550" stop-opacity="0"/>
</radialGradient>
<radialGradient id="paint7_radial" cx="0" cy="0" r="1" gradientUnits="userSpaceOnUse" gradientTransform="translate(259.298 425.861) rotate(-176.918) scale(144.507 1059.13)">
<stop stop-color="#F2F550"/>
<stop offset="1" stop-color="#CAF550" stop-opacity="0"/>
</radialGradient>
<radialGradient id="paint8_radial" cx="0" cy="0" r="1" gradientUnits="userSpaceOnUse" gradientTransform="translate(749.142 248.652) rotate(90) scale(10.4931 78.5)">
<stop stop-color="#C0F550"/>
<stop offset="1" stop-color="#C0F550" stop-opacity="0"/>
</radialGradient>
</defs>
</svg>
